# xmcd
#
# Track frame offsets:
# 150
# 15098
# 32270
# 49418
# 66776
# 80547
# 100628
# 108498
# 132929
# 157352
# 171154
# 189296
# 207614
# 220001
# 237382
# 261940
# 279388
# 300439
# 325751
#
# Disc length: 4538 seconds
#
# Revision: 0
# Processed by: cddbd v1.4PL0 Copyright (c) Steve Scherf et al.
# Submitted via: Audion 3.0.2 (http://www.panic.com/audion/)
#
DISCID=0311b813
DTITLE=dfgh - dfgh
DYEAR=1900
DGENRE=
TTITLE0=fgh
TTITLE1=h
TTITLE2=dfghdfgh
TTITLE3=hdfghdfg
TTITLE4=gdfh
TTITLE5=dfghfg
TTITLE6=dfghdfgh
TTITLE7=dfgh
TTITLE8=uytr
TTITLE9=rtyu
TTITLE10=rty
TTITLE11=rtyu
TTITLE12=hdfgh
TTITLE13=dfgh
TTITLE14=dfg
TTITLE15=hdfg
TTITLE16=dfgh
TTITLE17=dfgh
TTITLE18=dfgh
EXTD=
EXTT0=
EXTT1=
EXTT2=
EXTT3=
EXTT4=
EXTT5=
EXTT6=
EXTT7=
EXTT8=
EXTT9=
EXTT10=
EXTT11=
EXTT12=
EXTT13=
EXTT14=
EXTT15=
EXTT16=
EXTT17=
EXTT18=
PLAYORDER=
